<svg xmlns="http://www.w3.org/2000/svg" viewBox="0 0 544.76 83.44"><defs><style>.cls-1{fill:#fff;}</style></defs><g id="Layer_2" data-name="Layer 2"><g id="Layer_1-2" data-name="Layer 1"><path class="cls-1" d="M20.7,22.56a9.63,9.63,0,0,1-.08-4.09c.53-2.48,2.22-5.25,7.13-5.25,4.55,0,7.24,2.83,7.24,7.07v4.82H54.41V19.64C54.41,2.7,39.14,0,28.13,0,14.29,0,3,4.59.92,17.31a27,27,0,0,0,.16,10.5c3.37,15.92,31.05,20.52,35.07,30.6a10,10,0,0,1,.16,5.75c-.64,2.62-2.4,5.26-7.61,5.26-4.87,0-7.78-2.84-7.78-7.09l0-7.5H0v6C0,78.2,13.67,83.44,28.31,83.44c14.07,0,25.63-4.8,27.51-17.83a38.54,38.54,0,0,0-.08-12.75C52.45,36.52,22.92,31.67,20.7,22.56ZM274,22.75a10.55,10.55,0,0,1-.06-4c.55-2.49,2.23-5.21,7-5.21,4.5,0,7.14,2.8,7.14,7v4.77h19.2V19.86C307.3,3.08,292.25.44,281.36.44c-13.72,0-24.92,4.52-27,17.15A25.86,25.86,0,0,0,254.58,28c3.34,15.74,30.74,20.31,34.72,30.26a10.64,10.64,0,0,1,.15,5.71c-.6,2.59-2.34,5.2-7.51,5.2-4.85,0-7.76-2.79-7.76-7V54.68H253.5v5.94C253.5,77.83,267,83,281.51,83c13.91,0,25.4-4.75,27.24-17.64a37.63,37.63,0,0,0-.14-12.62C305.39,36.62,276.18,31.76,274,22.75ZM450.81,65.18,432.47,2.48h-28.9V79.55h19.12l-1.11-64.71,19.69,64.71H469V2.48H449.75ZM83.38,2.48,69,80.36H90L100.86,8.27l10.61,72.09h20.89L118,2.48ZM201,2.48l-9.83,60.88L181.36,2.48H149.59l-1.68,77.88h19.46l.53-72.09,13.39,72.09H201l13.4-72.09L215,80.36h19.51L232.74,2.48Zm181,0h-19.7V60.09a13.93,13.93,0,0,1-.17,3c-.41,1.94-2.05,5.66-7.49,5.66s-7-3.72-7.42-5.66a12.65,12.65,0,0,1-.2-3V2.48H327.31V58.31c0,1.43.09,4.38.17,5.14,1.36,14.55,12.83,19.27,27.14,19.27S380.43,78,381.81,63.45a41.23,41.23,0,0,0,.17-5.14ZM517.21,36.65V48h8V59.27a14.16,14.16,0,0,1-.2,3c-.32,2.1-2.31,5.68-8,5.68s-7.59-3.58-7.93-5.68a18.54,18.54,0,0,1-.21-3V23.68a15.74,15.74,0,0,1,.36-3.68c.38-1.9,2.06-5.64,7.74-5.64,6,0,7.44,3.95,7.78,5.64a19.88,19.88,0,0,1,.24,3v4.33H544.6V24.77a45.9,45.9,0,0,0-.15-5.15C543,5,530.94.39,517.14.39S491.52,5.05,489.8,19.62c-.15,1.33-.39,3.73-.39,5.15V57.51a45.51,45.51,0,0,0,.31,5.14c1.28,14.21,13.59,19.24,27.37,19.24s26.08-5,27.38-19.24c.23-2.61.26-3.71.29-5.14V36.65Z"/></g></g></svg>